<svg xmlns="http://www.w3.org/2000/svg" width="184" height="32"><path d="M103.374 22.356c7.462 0 7.462-5.514 7.462-11.178 0-5.724 0-11.178-7.462-11.178s-7.462 5.454-7.462 11.178c0 5.664 0 11.178 7.462 11.178zm0-19.12c2.547 0 2.877 2.398 2.877 7.942 0 5.544-.33 7.942-2.877 7.942-2.547 0-2.877-2.398-2.877-7.942 0-5.544.33-7.942 2.877-7.942zm25.07 13.036c0-2.966-.84-5.034-4.046-5.484v-.06c2.458-.479 3.686-2.277 3.686-4.765 0-4.615-2.847-5.603-6.293-5.603h-8.032v21.637h8.002c1.918 0 6.683-.24 6.683-5.725zm-10.16-12.586h2.788a2.592 2.592 0 012.607 2.757c0 2.098-1.379 2.757-2.368 2.757h-3.027zm0 14.984v-6.143h2.638c2.277 0 2.997 1.168 2.997 3.086 0 3.027-2.158 3.057-3.117 3.057zM136.03.36h-4.525v21.637h4.525zM80.925 5.977h.06l5.903 16.02h5.964V.36h-4.225v15.18h-.06L82.813.36h-6.114v21.637h4.226zm70.814 12.693h-7.521v-6.323h6.713V9.02h-6.713V3.876h7.282V.36h-11.808v21.637h12.047zM4.53 12.347h5.184v9.65h4.525V.36H9.713v8.66H4.53V.36H.004v21.637h4.525zM178.869.36l-3.447 9.14-3.237-9.14h-19.19v3.516h5.624v18.12h4.329V3.877h5.7l4.256 10.629v7.492h4.526v-7.492L183.483.359zM22.512.36h-4.526v21.637h4.526zm25.432 11.987h5.184v9.65h4.526V.36h-4.526v8.66h-5.184V.36H43.42v21.637h4.525zm-13.946 10.01a41.275 41.275 0 006.114-.72V10.669H33.13v3.326h2.458v4.795a7.112 7.112 0 01-2.248.42c-2.577 0-3.237-1.2-3.237-7.972 0-4.196 0-8.002 2.818-8.002 2.397 0 2.727 1.768 2.696 3.776h4.496C40.383 2.487 37.625 0 33.19 0c-7.402 0-7.672 5.544-7.672 10.998 0 8.211.87 11.358 8.481 11.358zm32.448 0c3.446 0 7.552-.66 7.552-6.264 0-6.803-9.11-6.443-9.11-10.549a2.108 2.108 0 012.337-2.308c1.828 0 2.098 1.649 2.098 3.267h4.405C74.03 1.978 71.841 0 67.436 0c-5.514 0-7.132 2.697-7.132 6.083 0 6.444 9.11 6.683 9.11 10.579a2.163 2.163 0 01-2.278 2.458c-2.487 0-2.577-1.738-2.577-3.806h-4.525c-.24 3.746.809 7.042 6.413 7.042zM0 32h177.412v-3.326H0z"/></svg>